<?xml version="1.0" encoding="UTF-8"?>
<svg width="38px" height="38px" viewBox="0 0 38 38" version="1.1" xmlns="http://www.w3.org/2000/svg" xmlns:xlink="http://www.w3.org/1999/xlink">
    <title>åˆ‡ç‰‡</title>
    <defs>
        <filter x="-25.8%" y="-28.2%" width="151.7%" height="156.4%" filterUnits="objectBoundingBox" id="filter-1">
            <feOffset dx="0" dy="4" in="SourceAlpha" result="shadowOffsetOuter1"></feOffset>
            <feGaussianBlur stdDeviation="6" in="shadowOffsetOuter1" result="shadowBlurOuter1"></feGaussianBlur>
            <feColorMatrix values="0 0 0 0 0   0 0 0 0 0   0 0 0 0 0  0 0 0 0.08 0" type="matrix" in="shadowBlurOuter1" result="shadowMatrixOuter1"></feColorMatrix>
            <feMerge>
                <feMergeNode in="shadowMatrixOuter1"></feMergeNode>
                <feMergeNode in="SourceGraphic"></feMergeNode>
            </feMerge>
        </filter>
        <path d="M19.475,11.4791667 C19.7810578,11.4791667 20.0291667,11.7272755 20.0291667,12.0333333 L20.0291667,17.9701667 L25.9666667,17.9708333 C26.2727245,17.9708333 26.5208333,18.2189422 26.5208333,18.525 L26.5208333,19.475 C26.5208333,19.7810578 26.2727245,20.0291667 25.9666667,20.0291667 L20.0291667,20.0291667 L20.0291667,25.9666667 C20.0291667,26.2727245 19.7810578,26.5208333 19.475,26.5208333 L18.525,26.5208333 C18.2189422,26.5208333 17.9708333,26.2727245 17.9708333,25.9666667 L17.9701667,20.0291667 L12.0333333,20.0291667 C11.7272755,20.0291667 11.4791667,19.7810578 11.4791667,19.475 L11.4791667,18.525 C11.4791667,18.2189422 11.7272755,17.9708333 12.0333333,17.9708333 L17.9701667,17.9701667 L17.9708333,12.0333333 C17.9708333,11.7272755 18.2189422,11.4791667 18.525,11.4791667 L19.475,11.4791667 Z" id="path-2"></path>
        <filter x="-56.5%" y="-43.2%" width="213.0%" height="213.0%" filterUnits="objectBoundingBox" id="filter-3">
            <feOffset dx="0" dy="2" in="SourceAlpha" result="shadowOffsetOuter1"></feOffset>
            <feGaussianBlur stdDeviation="2.5" in="shadowOffsetOuter1" result="shadowBlurOuter1"></feGaussianBlur>
            <feColorMatrix values="0 0 0 0 0   0 0 0 0 0   0 0 0 0 0  0 0 0 0.0786713287 0" type="matrix" in="shadowBlurOuter1"></feColorMatrix>
        </filter>
    </defs>
    <g id="å°é±¼è§†é¢‘ä¼šè®®ðŸŸ" stroke="none" stroke-width="1" fill="none" fill-rule="evenodd">
        <g id="è§†é¢‘ä¼šè®®é¦–é¡µ-windows" transform="translate(-327.000000, -289.000000)">
            <g id="ç¼–ç»„-5" transform="translate(126.000000, 124.000000)">
                <g id="é¦–é¡µ/åŠŸèƒ½å…¥å£" filter="url(#filter-1)" transform="translate(176.000000, 141.000000)">
                    <g id="èµ„æº/å¤´åƒ/åº”ç”¨" transform="translate(25.000000, 24.000000)">
                        <g id="48)-èœå•åˆ—è¡¨/å‘èµ·ä¼šè®®èžæ•°" transform="translate(-0.000000, -0.000000)">
                            <g id="ç¼–ç»„" transform="translate(0.000000, 0.000000)">
                                <rect id="Rectangle-2-Copy-3" fill="#8363F1" x="0" y="0" width="38" height="38"></rect>
                                <g id="å½¢çŠ¶ç»“åˆ" fill-rule="nonzero">
                                    <use fill="black" fill-opacity="1" filter="url(#filter-3)" xlink:href="#path-2"></use>
                                    <use fill="#FFFFFF" xlink:href="#path-2"></use>
                                </g>
                            </g>
                        </g>
                    </g>
                </g>
            </g>
        </g>
    </g>
</svg>