<?xml version="1.0" encoding="UTF-8"?>
<svg width="38px" height="38px" viewBox="0 0 38 38" version="1.1" xmlns="http://www.w3.org/2000/svg" xmlns:xlink="http://www.w3.org/1999/xlink">
    <title>åˆ‡ç‰‡</title>
    <defs>
        <path d="M18.6946248,11.0833333 C21.4407721,11.0833333 23.4567448,12.8050687 24.5379372,14.951026 C27.5056501,15.5421445 30.0833333,17.7824226 30.0833333,20.7434856 C30.0833333,23.8202249 27.6793996,26.3700814 24.5379372,26.8292992 L23.2628205,26.9166667 L13.0320513,26.9166667 C10.2069024,26.9166667 7.91666667,24.5623112 7.91666667,21.6580665 C7.91666667,19.1420111 9.63558072,17.0386697 11.9320613,16.5213441 C12.3695217,13.4526758 15.230478,11.0833333 18.6946248,11.0833333 Z M21.0171249,17.8883231 L15.0756605,17.8883231 C14.6863754,17.8883231 14.3707974,18.2021451 14.3707974,18.6014542 L14.3707974,22.7168587 C14.3707974,23.1107101 14.6866689,23.4299898 15.0756605,23.4299898 L21.0171249,23.4299898 C21.40641,23.4299898 21.7219879,23.1161677 21.7219879,22.7168587 L21.7219879,21.5596773 L24.0674149,23.0515041 C24.3960515,23.260536 24.6624641,23.1161677 24.6624641,22.7168587 L24.6624641,18.6014542 C24.6624641,18.2076028 24.3911018,18.0609252 24.0674149,18.2668087 L21.7219879,19.7586356 L21.7219879,18.6014542 C21.7219879,18.2076028 21.4061165,17.8883231 21.0171249,17.8883231 Z" id="path-1"></path>
        <filter x="-38.3%" y="-41.1%" width="176.7%" height="207.4%" filterUnits="objectBoundingBox" id="filter-2">
            <feOffset dx="0" dy="2" in="SourceAlpha" result="shadowOffsetOuter1"></feOffset>
            <feGaussianBlur stdDeviation="2.5" in="shadowOffsetOuter1" result="shadowBlurOuter1"></feGaussianBlur>
            <feColorMatrix values="0 0 0 0 0.141176471   0 0 0 0 0.180392157   0 0 0 0 0.243137255  0 0 0 0.1 0" type="matrix" in="shadowBlurOuter1"></feColorMatrix>
        </filter>
    </defs>
    <g id="å°é±¼è§†é¢‘ä¼šè®®ðŸŸ" stroke="none" stroke-width="1" fill="none" fill-rule="evenodd">
        <g id="è§†é¢‘ä¼šè®®é¦–é¡µ-windows" transform="translate(-191.000000, -544.000000)">
            <g id="ç¼–ç»„-5" transform="translate(126.000000, 124.000000)">
                <g id="é¦–é¡µ/åŠŸèƒ½å…¥å£å¤‡ä»½-5" transform="translate(40.000000, 396.000000)">
                    <g id="48)-èœå•åˆ—è¡¨/å‘èµ·ä¼šè®®èžæ•°" transform="translate(25.000000, 24.000000)">
                        <g id="icon" fill="#3379FB">
                            <rect id="Rectangle-2-Copy-3" x="0" y="0" width="38" height="38"></rect>
                        </g>
                        <g id="å½¢çŠ¶ç»“åˆ">
                            <use fill="black" fill-opacity="1" filter="url(#filter-2)" xlink:href="#path-1"></use>
                            <use fill="#FFFFFF" fill-rule="evenodd" xlink:href="#path-1"></use>
                        </g>
                    </g>
                </g>
            </g>
        </g>
    </g>
</svg>